<?xml version="1.0" encoding="UTF-8" standalone="no" ?>
<!DOCTYPE svg PUBLIC "-//W3C//DTD SVG 1.1//EN" "http://www.w3.org/Graphics/SVG/1.1/DTD/svg11.dtd">
<svg xmlns="http://www.w3.org/2000/svg" xmlns:xlink="http://www.w3.org/1999/xlink" version="1.1" width="640" height="480" viewBox="0 0 640 480" xml:space="preserve">
<desc>Created with Fabric.js 3.6.3</desc>
<defs>
</defs>
<g transform="matrix(3.6 0 0 3.6 320.9 240.94)" id="Layer_1"  >
<path style="stroke: none; stroke-width: 1; stroke-dasharray: none; stroke-linecap: butt; stroke-dashoffset: 0; stroke-linejoin: miter; stroke-miterlimit: 4; fill: rgb(255,215,0); fill-rule: nonzero; opacity: 1;"  transform=" translate(-61.44, -61.45)" d="M 49.06 1.27 c 2.17 -0.45 4.34 -0.77 6.48 -0.98 c 2.2 -0.21 4.38 -0.31 6.53 -0.29 c 1.21 0.01 2.18 1 2.17 2.21 c -0.01 0.93 -0.6 1.72 -1.42 2.03 c -9.15 3.6 -16.47 10.31 -20.96 18.62 c -4.42 8.17 -6.1 17.88 -4.09 27.68 l 0.01 0.07 c 2.29 11.06 8.83 20.15 17.58 25.91 c 8.74 5.76 19.67 8.18 30.73 5.92 l 0.07 -0.01 c 7.96 -1.65 14.89 -5.49 20.3 -10.78 c 5.6 -5.47 9.56 -12.48 11.33 -20.16 c 0.27 -1.18 1.45 -1.91 2.62 -1.64 c 0.89 0.21 1.53 0.93 1.67 1.78 c 2.64 16.2 -1.35 32.07 -10.06 44.71 c -8.67 12.58 -22.03 21.97 -38.18 25.29 c -16.62 3.42 -33.05 -0.22 -46.18 -8.86 C 14.52 104.1 4.69 90.45 1.27 73.83 C -2.07 57.6 1.32 41.55 9.53 28.58 C 17.78 15.57 30.88 5.64 46.91 1.75 c 0.31 -0.08 0.67 -0.16 1.06 -0.25 l 0.01 0 l 0 0 L 49.06 1.27 L 49.06 1.27 z" stroke-linecap="round" />
</g>
</svg>